# xmcd
#
# Track frame offsets: 
#        150
#        23538
#        41088
#        64638
#        77013
#        97863
#        119238
#        135288
#        155538
#        173613
#        190938
#        210963
#
# Disc length: 2920 seconds
#
# Revision: 2
# Processed by: cddbd v1.5.2PL0 Copyright (c) Steve Scherf et al.
# Submitted via: ExactAudioCopy v1.0b3
#
DISCID=8f0b660c
DTITLE=Gashouse Dave and The Hardtails - Leavin' The Plantation
DYEAR=1998
DGENRE=Blues
TTITLE0=Third Nail
TTITLE1=Another Zone
TTITLE2=Orange Chicken
TTITLE3=Leavin' The Plantation
TTITLE4=Buzzerman
TTITLE5=Nobody Here But You
TTITLE6=Full Grown
TTITLE7=Goddess Of Hope
TTITLE8=L.L. Love
TTITLE9=Deep Blues 9
TTITLE10=Sandscape
TTITLE11=Army Mule
EXTD=
EXTT0=copyright 1998  Terra Nova Records Inc.,
EXTT1=
EXTT2=
EXTT3=
EXTT4=
EXTT5=
EXTT6=
EXTT7=
EXTT8=
EXTT9=
EXTT10=
EXTT11=
PLAYORDER=
